<?xml version="1.0" encoding="UTF-8" standalone="no"?><!DOCTYPE svg PUBLIC "-//W3C//DTD SVG 1.1//EN" "http://www.w3.org/Graphics/SVG/1.1/DTD/svg11.dtd">
<svg width="100%" height="100%" viewBox="0 0 280 218" version="1.1"
  xmlns="http://www.w3.org/2000/svg"
  xmlns:xlink="http://www.w3.org/1999/xlink" xml:space="preserve"
  xmlns:serif="http://www.serif.com/" style="fill-rule:evenodd;clip-rule:evenodd;stroke-linejoin:round;stroke-miterlimit:2;">
  <path d="M239.18,134.083c-11.016,45.462 -51.285,79.185 -99.18,79.185c-47.895,-0 -88.164,-33.723 -99.18,-79.185l8.254,0c10.799,40.97 47.424,71.185 90.926,71.185c43.502,-0 80.127,-30.215 90.926,-71.185l8.254,0Zm-198.36,-50.166c11.016,-45.462 51.285,-79.185 99.18,-79.185c47.895,0 88.164,33.723 99.18,79.185l-8.254,-0c-10.799,-40.97 -47.424,-71.185 -90.926,-71.185c-43.502,0 -80.127,30.215 -90.926,71.185l-8.254,-0Z" style="fill:#fff;"/>
  <g>
    <path d="M4.863,128.676l0,-39.352l8.745,-0l13.336,15.905l13.282,-15.905l8.799,-0l0,39.352l-8.526,0l-0,-26.399l-13.555,16.178l-13.609,-16.123l0,26.344l-8.472,0Z" style="fill:#fff;fill-rule:nonzero;"/>
    <path d="M63.618,128.676c-1.457,0 -2.805,-0.364 -4.044,-1.093c-1.239,-0.729 -2.223,-1.713 -2.952,-2.951c-0.728,-1.239 -1.093,-2.587 -1.093,-4.045l0,-23.174c0,-1.494 0.365,-2.851 1.093,-4.072c0.729,-1.221 1.713,-2.195 2.952,-2.924c1.239,-0.729 2.587,-1.093 4.044,-1.093l23.175,-0c1.457,-0 2.796,0.364 4.017,1.093c1.22,0.729 2.204,1.703 2.951,2.924c0.747,1.221 1.121,2.578 1.121,4.072l-0,23.174c-0,1.458 -0.374,2.806 -1.121,4.045c-0.747,1.238 -1.731,2.222 -2.951,2.951c-1.221,0.729 -2.56,1.093 -4.017,1.093l-23.175,0Zm0.383,-8.526l22.3,-0l-0,-22.3l-22.3,0l0,22.3Z" style="fill:#fff;fill-rule:nonzero;"/>
    <path d="M108.928,128.676c-1.457,0 -2.806,-0.364 -4.044,-1.093c-1.239,-0.729 -2.223,-1.713 -2.952,-2.951c-0.729,-1.239 -1.093,-2.587 -1.093,-4.045l0,-23.174c0,-1.494 0.364,-2.851 1.093,-4.072c0.729,-1.221 1.713,-2.195 2.952,-2.924c1.238,-0.729 2.587,-1.093 4.044,-1.093l23.174,-0c1.458,-0 2.797,0.364 4.017,1.093c1.221,0.729 2.205,1.703 2.952,2.924c0.747,1.221 1.12,2.578 1.12,4.072l0,23.174c0,1.458 -0.373,2.806 -1.12,4.045c-0.747,1.238 -1.731,2.222 -2.952,2.951c-1.22,0.729 -2.559,1.093 -4.017,1.093l-23.174,0Zm0.383,-8.526l22.299,-0l0,-22.3l-22.299,0l-0,22.3Z" style="fill:#fff;fill-rule:nonzero;"/>
    <path d="M146.258,128.676l0,-39.352l8.745,-0l22.026,26.235l0,-26.235l8.581,-0l0,39.352l-8.745,0l-22.135,-26.344l-0,26.344l-8.472,0Z" style="fill:#fff;fill-rule:nonzero;"/>
    <path d="M191.896,128.676l-0,-39.352l36.346,-0l-0,8.526l-27.765,0l-0,6.887l22.354,-0l-0,8.526l-22.354,0l-0,6.887l27.765,-0l-0,8.526l-36.346,0Z" style="fill:#fff;fill-rule:nonzero;"/>
    <path d="M248.355,128.676l0,-14.702l-18.2,-24.65l10.111,-0l12.352,15.522l12.298,-15.522l10.221,-0l-18.255,24.704l-0,14.648l-8.527,0Z" style="fill:#fff;fill-rule:nonzero;"/>
  </g>
</svg>